ffmpeg version 2024-12-23-git-6c9218d748-full_build-www.gyan.dev Copyright (c) 2000-2024 the FFmpeg developers
  built with gcc 14.2.0 (Rev1, Built by MSYS2 project)
  configuration: --enable-gpl --enable-version3 --enable-static --disable-w32threads --disable-autodetect --enable-fontconfig --enable-iconv --enable-gnutls --enable-libxml2 --enable-gmp --enable-bzlib --enable-lzma --enable-libsnappy --enable-zlib --enable-librist --enable-libsrt --enable-libssh --enable-libzmq --enable-avisynth --enable-libbluray --enable-libcaca --enable-sdl2 --enable-libaribb24 --enable-libaribcaption --enable-libdav1d --enable-libdavs2 --enable-libopenjpeg --enable-libquirc --enable-libuavs3d --enable-libxevd --enable-libzvbi --enable-libqrencode --enable-librav1e --enable-libsvtav1 --enable-libwebp --enable-libx264 --enable-libx265 --enable-libxavs2 --enable-libxeve --enable-libxvid --enable-libaom --enable-libjxl --enable-libvpx --enable-mediafoundation --enable-libass --enable-frei0r --enable-libfreetype --enable-libfribidi --enable-libharfbuzz --enable-liblensfun --enable-libvidstab --enable-libvmaf --enable-libzimg --enable-amf --enable-cuda-llvm --enable-cuvid --enable-dxva2 --enable-d3d11va --enable-d3d12va --enable-ffnvcodec --enable-libvpl --enable-nvdec --enable-nvenc --enable-vaapi --enable-libshaderc --enable-vulkan --enable-libplacebo --enable-opencl --enable-libcdio --enable-libgme --enable-libmodplug --enable-libopenmpt --enable-libopencore-amrwb --enable-libmp3lame --enable-libshine --enable-libtheora --enable-libtwolame --enable-libvo-amrwbenc --enable-libcodec2 --enable-libilbc --enable-libgsm --enable-liblc3 --enable-libopencore-amrnb --enable-libopus --enable-libspeex --enable-libvorbis --enable-ladspa --enable-libbs2b --enable-libflite --enable-libmysofa --enable-librubberband --enable-libsoxr --enable-chromaprint
  libavutil      59. 51.100 / 59. 51.100
  libavcodec     61. 28.100 / 61. 28.100
  libavformat    61.  9.101 / 61.  9.101
  libavdevice    61.  4.100 / 61.  4.100
  libavfilter    10.  6.101 / 10.  6.101
  libswscale      8. 12.100 /  8. 12.100
  libswresample   5.  4.100 /  5.  4.100
  libpostproc    58.  4.100 / 58.  4.100
[gdigrab @ 000002237cd962c0] Capturing whole desktop as 1920x1080x32 at (0,0)
[gdigrab @ 000002237cd962c0] Stream #0: not enough frames to estimate rate; consider increasing probesize
Input #0, gdigrab, from 'desktop':
  Duration: N/A, start: 1737946533.909777, bitrate: 1990668 kb/s
  Stream #0:0: Video: bmp, bgra, 1920x1080, 1990668 kb/s, 30 fps, 1000k tbr, 1000k tbn
Stream mapping:
  Stream #0:0 -> #0:0 (bmp (native) -> h264 (libx264))
Press [q] to stop, [?] for help
[libx264 @ 000002237cd9bfc0] using cpu capabilities: MMX2 SSE2Fast SSSE3 SSE4.2 AVX FMA3 BMI2 AVX2
[libx264 @ 000002237cd9bfc0] profile High 4:4:4 Predictive, level 4.0, 4:4:4, 8-bit
[libx264 @ 000002237cd9bfc0] 264 - core 164 r3198 da14df5 - H.264/MPEG-4 AVC codec - Copyleft 2003-2024 - http://www.videolan.org/x264.html - options: cabac=0 ref=1 deblock=0:0:0 analyse=0:0 me=dia subme=0 psy=1 psy_rd=1.00:0.00 mixed_ref=0 me_range=16 chroma_me=1 trellis=0 8x8dct=0 cqm=0 deadzone=21,11 fast_pskip=1 chroma_qp_offset=6 threads=12 lookahead_threads=2 sliced_threads=0 nr=0 decimate=1 interlaced=0 bluray_compat=0 constrained_intra=0 bframes=0 weightp=0 keyint=250 keyint_min=25 scenecut=0 intra_refresh=0 rc=crf mbtree=0 crf=23.0 qcomp=0.60 qpmin=0 qpmax=69 qpstep=4 ip_ratio=1.40 aq=0
Output #0, mp4, to 'test-output/VideoReports/test_video_1737946533759.mp4':
  Metadata:
    encoder         : Lavf61.9.101
  Stream #0:0: Video: h264 (avc1 / 0x31637661), yuv444p(tv, progressive), 1920x1080, q=2-31, 30 fps, 15360 tbn
    Metadata:
      encoder         : Lavc61.28.100 libx264
    Side data:
      cpb: bitrate max/min/avg: 0/0/0 buffer size: 0 vbv_delay: N/A
frame=    3 fps=0.0 q=13.0 size=       0KiB time=00:00:00.06 bitrate=   5.8kbits/s speed=0.126x    frame=   19 fps= 18 q=13.0 size=       0KiB time=00:00:00.60 bitrate=   0.6kbits/s speed=0.575x    frame=   34 fps= 22 q=13.0 size=       0KiB time=00:00:01.10 bitrate=   0.3kbits/s speed=0.706x    frame=   50 fps= 24 q=13.0 size=       0KiB time=00:00:01.63 bitrate=   0.2kbits/s speed=0.786x    frame=   65 fps= 25 q=13.0 size=       0KiB time=00:00:02.13 bitrate=   0.2kbits/s speed=0.823x    frame=   81 fps= 26 q=13.0 size=       0KiB time=00:00:02.66 bitrate=   0.1kbits/s speed=0.859x    frame=   96 fps= 27 q=13.0 size=       0KiB time=00:00:03.16 bitrate=   0.1kbits/s speed=0.874x    frame=  112 fps= 27 q=13.0 size=       0KiB time=00:00:03.70 bitrate=   0.1kbits/s speed=0.895x    frame=  127 fps= 27 q=13.0 size=       0KiB time=00:00:04.20 bitrate=   0.1kbits/s speed=0.903x    frame=  140 fps= 27 q=16.0 size=       0KiB time=00:00:04.63 bitrate=   0.1kbits/s speed=0.897x    frame=  155 fps= 27 q=13.0 size=     256KiB time=00:00:05.23 bitrate= 400.8kbits/s speed=0.921x    

[q] command received. Exiting.

[out#0/mp4 @ 000002237cd9ad00] video:387KiB audio:0KiB subtitle:0KiB other streams:0KiB global headers:0KiB muxing overhead: 0.413036%
frame=  182 fps= 29 q=-1.0 Lsize=     388KiB time=00:00:06.16 bitrate= 515.7kbits/s speed=0.993x    
[libx264 @ 000002237cd9bfc0] frame I:1     Avg QP:20.00  size: 89277
[libx264 @ 000002237cd9bfc0] frame P:181   Avg QP:13.29  size:  1690
[libx264 @ 000002237cd9bfc0] mb I  I16..4: 100.0%  0.0%  0.0%
[libx264 @ 000002237cd9bfc0] mb P  I16..4:  1.1%  0.0%  0.0%  P16..4:  0.7%  0.0%  0.0%  0.0%  0.0%    skip:98.2%
[libx264 @ 000002237cd9bfc0] coded y,u,v intra: 4.7% 2.0% 2.0% inter: 0.3% 0.2% 0.1%
[libx264 @ 000002237cd9bfc0] i16 v,h,dc,p: 66% 32%  1%  0%
[libx264 @ 000002237cd9bfc0] kb/s:510.00
